<svg width="38" height="32" viewBox="0 0 38 32" fill="none" xmlns="http://www.w3.org/2000/svg">
<path d="M6.42454 8.21807C2.12981 6.40107 3.42818 0 8.09146 0H13.6038C16.584 0 19 2.41596 19 5.39619V24C19 28.4183 15.4183 32 11 32H8.02245C1.0169 32 -2.09568 23.1927 3.35422 18.7908L7.44571 15.4862C9.9599 13.4555 9.40097 9.47733 6.42454 8.21807V8.21807Z" fill="#4BB7FD"/>
<path d="M31.5755 8.21807C35.8702 6.40107 34.5718 0 29.9085 0H24.3962C21.416 0 19 2.41596 19 5.39619V24C19 28.4183 22.5817 32 27 32H29.9776C36.9831 32 40.0957 23.1927 34.6458 18.7908L30.5543 15.4862C28.0401 13.4555 28.599 9.47733 31.5755 8.21807V8.21807Z" fill="#7B6EF6"/>
</svg>
